<svg xmlns="http://www.w3.org/2000/svg" width="20.268" height="20.268" viewBox="0 0 20.268 20.268">
  <path id="Facebook_logo" data-name="Facebook, logo" d="M28.578,10H11.689A1.694,1.694,0,0,0,10,11.689V28.579a1.694,1.694,0,0,0,1.689,1.689h8.445V21.823H18.445V20.134h1.689V18.445a4.223,4.223,0,0,1,4.222-4.222h1.689v1.689H24.356a2.534,2.534,0,0,0-2.533,2.533v1.689h4.222v1.689H21.823v8.445h6.756a1.694,1.694,0,0,0,1.689-1.689V11.689A1.694,1.694,0,0,0,28.578,10Z" transform="translate(-10 -10)" fill="#fff"/>
</svg>
