<svg xmlns="http://www.w3.org/2000/svg" width="20.268" height="20.268" viewBox="0 0 20.268 20.268">
  <path id="Instagram_logo" data-name="Instagram, logo" d="M25.2,10H15.067A5.081,5.081,0,0,0,10,15.067V25.2a5.082,5.082,0,0,0,5.067,5.067H25.2A5.082,5.082,0,0,0,30.268,25.2V15.067A5.081,5.081,0,0,0,25.2,10ZM20.134,24.356a4.222,4.222,0,1,1,4.222-4.222A4.223,4.223,0,0,1,20.134,24.356Zm5.489-8.445a1.267,1.267,0,1,1,1.267-1.267A1.266,1.266,0,0,1,25.623,15.911Z" transform="translate(-10 -10)" fill="#fff"/>
</svg>
