<svg xmlns="http://www.w3.org/2000/svg" width="275" height="275" viewBox="0 0 275 275">
  <g id="grillage" opacity="0.55">
    <g id="Groupe_1" data-name="Groupe 1" transform="translate(0)">
      <path id="Ligne_24" data-name="Ligne 24" d="M275,.25H0v-.5H275Z" transform="translate(12.421 275) rotate(-90)" fill="#024222"/>
      <path id="Ligne_26" data-name="Ligne 26" d="M275,.25H0v-.5H275Z" transform="translate(36.686 275) rotate(-90)" fill="#024222"/>
      <path id="Ligne_25" data-name="Ligne 25" d="M275,.25H0v-.5H275Z" transform="translate(26.287 275) rotate(-90)" fill="#024222"/>
      <path id="Ligne_28" data-name="Ligne 28" d="M275,.25H0v-.5H275Z" transform="translate(60.951 275) rotate(-90)" fill="#024222"/>
      <path id="Ligne_30" data-name="Ligne 30" d="M275,.25H0v-.5H275Z" transform="translate(88.682 275) rotate(-90)" fill="#024222"/>
      <path id="Ligne_32" data-name="Ligne 32" d="M275,.25H0v-.5H275Z" transform="translate(116.413 275) rotate(-90)" fill="#024222"/>
      <path id="Ligne_33" data-name="Ligne 33" d="M275,.25H0v-.5H275Z" transform="translate(130.278 275) rotate(-90)" fill="#024222"/>
      <path id="Ligne_36" data-name="Ligne 36" d="M275,.25H0v-.5H275Z" transform="translate(158.009 275) rotate(-90)" fill="#024222"/>
      <path id="Ligne_38" data-name="Ligne 38" d="M275,.25H0v-.5H275Z" transform="translate(185.741 275) rotate(-90)" fill="#024222"/>
      <path id="Ligne_40" data-name="Ligne 40" d="M275,.25H0v-.5H275Z" transform="translate(213.472 275) rotate(-90)" fill="#024222"/>
      <path id="Ligne_42" data-name="Ligne 42" d="M275,.25H0v-.5H275Z" transform="translate(241.203 275) rotate(-90)" fill="#024222"/>
      <path id="Ligne_27" data-name="Ligne 27" d="M275,.25H0v-.5H275Z" transform="translate(50.551 275) rotate(-90)" fill="#024222"/>
      <path id="Ligne_29" data-name="Ligne 29" d="M275,.25H0v-.5H275Z" transform="translate(74.816 275) rotate(-90)" fill="#024222"/>
      <path id="Ligne_31" data-name="Ligne 31" d="M275,.25H0v-.5H275Z" transform="translate(102.547 275) rotate(-90)" fill="#024222"/>
      <path id="Ligne_35" data-name="Ligne 35" d="M275,.25H0v-.5H275Z" transform="translate(144.144 275) rotate(-90)" fill="#024222"/>
      <path id="Ligne_37" data-name="Ligne 37" d="M275,.25H0v-.5H275Z" transform="translate(171.875 275) rotate(-90)" fill="#024222"/>
      <path id="Ligne_39" data-name="Ligne 39" d="M275,.25H0v-.5H275Z" transform="translate(199.606 275) rotate(-90)" fill="#024222"/>
      <path id="Ligne_41" data-name="Ligne 41" d="M275,.25H0v-.5H275Z" transform="translate(227.337 275) rotate(-90)" fill="#024222"/>
      <path id="Ligne_43" data-name="Ligne 43" d="M275,.25H0v-.5H275Z" transform="translate(255.068 275) rotate(-90)" fill="#024222"/>
      <path id="Ligne_2" data-name="Ligne 2" d="M275,.25H0v-.5H275Z" transform="translate(0 14.443)" fill="#024222"/>
      <path id="Ligne_5" data-name="Ligne 5" d="M275,.25H0v-.5H275Z" transform="translate(0 38.708)" fill="#024222"/>
      <path id="Ligne_7" data-name="Ligne 7" d="M275,.25H0v-.5H275Z" transform="translate(0 62.973)" fill="#024222"/>
      <path id="Ligne_9" data-name="Ligne 9" d="M275,.25H0v-.5H275Z" transform="translate(0 90.704)" fill="#024222"/>
      <path id="Ligne_11" data-name="Ligne 11" d="M275,.25H0v-.5H275Z" transform="translate(0 118.435)" fill="#024222"/>
      <path id="Ligne_13" data-name="Ligne 13" d="M275,.25H0v-.5H275Z" transform="translate(0 132.3)" fill="#024222"/>
      <path id="Ligne_15" data-name="Ligne 15" d="M275,.25H0v-.5H275Z" transform="translate(0 160.032)" fill="#024222"/>
      <path id="Ligne_17" data-name="Ligne 17" d="M275,.25H0v-.5H275Z" transform="translate(0 187.763)" fill="#024222"/>
      <path id="Ligne_19" data-name="Ligne 19" d="M275,.25H0v-.5H275Z" transform="translate(0 215.494)" fill="#024222"/>
      <path id="Ligne_21" data-name="Ligne 21" d="M275,.25H0v-.5H275Z" transform="translate(0 243.225)" fill="#024222"/>
      <path id="Ligne_3" data-name="Ligne 3" d="M275,.25H0v-.5H275Z" transform="translate(0 28.309)" fill="#024222"/>
      <path id="Ligne_4" data-name="Ligne 4" d="M275,.25H0v-.5H275Z" transform="translate(0 52.574)" fill="#024222"/>
      <path id="Ligne_6" data-name="Ligne 6" d="M275,.25H0v-.5H275Z" transform="translate(0 76.838)" fill="#024222"/>
      <path id="Ligne_8" data-name="Ligne 8" d="M275,.25H0v-.5H275Z" transform="translate(0 104.569)" fill="#024222"/>
      <path id="Ligne_10" data-name="Ligne 10" d="M275,.25H0v-.5H275Z" transform="translate(0 132.3)" fill="#024222"/>
      <path id="Ligne_12" data-name="Ligne 12" d="M275,.25H0v-.5H275Z" transform="translate(0 146.166)" fill="#024222"/>
      <path id="Ligne_14" data-name="Ligne 14" d="M275,.25H0v-.5H275Z" transform="translate(0 173.897)" fill="#024222"/>
      <path id="Ligne_16" data-name="Ligne 16" d="M275,.25H0v-.5H275Z" transform="translate(0 201.628)" fill="#024222"/>
      <path id="Ligne_18" data-name="Ligne 18" d="M275,.25H0v-.5H275Z" transform="translate(0 229.359)" fill="#024222"/>
      <path id="Ligne_20" data-name="Ligne 20" d="M275,.25H0v-.5H275Z" transform="translate(0 257.09)" fill="#024222"/>
    </g>
  </g>
</svg>
