<svg xmlns="http://www.w3.org/2000/svg" width="163" height="129" viewBox="0 0 163 129">
  <g id="orne" transform="translate(-204 -6858)">
    <circle id="Ellipse_40" data-name="Ellipse 40" cx="4.5" cy="4.5" r="4.5" transform="translate(204 6858)" fill="#e4e6ef"/>
    <circle id="Ellipse_48" data-name="Ellipse 48" cx="4.5" cy="4.5" r="4.5" transform="translate(204 6882)" fill="#e4e6ef"/>
    <circle id="Ellipse_56" data-name="Ellipse 56" cx="4.5" cy="4.5" r="4.5" transform="translate(204 6906)" fill="#e4e6ef"/>
    <circle id="Ellipse_64" data-name="Ellipse 64" cx="4.5" cy="4.5" r="4.5" transform="translate(204 6930)" fill="#e4e6ef"/>
    <circle id="Ellipse_72" data-name="Ellipse 72" cx="4.5" cy="4.5" r="4.5" transform="translate(204 6954)" fill="#e4e6ef"/>
    <circle id="Ellipse_80" data-name="Ellipse 80" cx="4.5" cy="4.5" r="4.5" transform="translate(204 6978)" fill="#e4e6ef"/>
    <circle id="Ellipse_41" data-name="Ellipse 41" cx="4.5" cy="4.5" r="4.5" transform="translate(226 6858)" fill="#e4e6ef"/>
    <circle id="Ellipse_49" data-name="Ellipse 49" cx="4.5" cy="4.5" r="4.5" transform="translate(226 6882)" fill="#e4e6ef"/>
    <circle id="Ellipse_57" data-name="Ellipse 57" cx="4.5" cy="4.5" r="4.5" transform="translate(226 6906)" fill="#e4e6ef"/>
    <circle id="Ellipse_65" data-name="Ellipse 65" cx="4.5" cy="4.5" r="4.5" transform="translate(226 6930)" fill="#e4e6ef"/>
    <circle id="Ellipse_73" data-name="Ellipse 73" cx="4.5" cy="4.5" r="4.5" transform="translate(226 6954)" fill="#e4e6ef"/>
    <circle id="Ellipse_81" data-name="Ellipse 81" cx="4.5" cy="4.5" r="4.5" transform="translate(226 6978)" fill="#e4e6ef"/>
    <circle id="Ellipse_42" data-name="Ellipse 42" cx="4.5" cy="4.5" r="4.5" transform="translate(248 6858)" fill="#e4e6ef"/>
    <circle id="Ellipse_50" data-name="Ellipse 50" cx="4.5" cy="4.5" r="4.5" transform="translate(248 6882)" fill="#e4e6ef"/>
    <circle id="Ellipse_58" data-name="Ellipse 58" cx="4.5" cy="4.5" r="4.5" transform="translate(248 6906)" fill="#e4e6ef"/>
    <circle id="Ellipse_66" data-name="Ellipse 66" cx="4.5" cy="4.5" r="4.5" transform="translate(248 6930)" fill="#e4e6ef"/>
    <circle id="Ellipse_74" data-name="Ellipse 74" cx="4.5" cy="4.5" r="4.5" transform="translate(248 6954)" fill="#e4e6ef"/>
    <circle id="Ellipse_82" data-name="Ellipse 82" cx="4.5" cy="4.5" r="4.5" transform="translate(248 6978)" fill="#e4e6ef"/>
    <circle id="Ellipse_43" data-name="Ellipse 43" cx="4.5" cy="4.5" r="4.5" transform="translate(270 6858)" fill="#e4e6ef"/>
    <circle id="Ellipse_51" data-name="Ellipse 51" cx="4.5" cy="4.5" r="4.5" transform="translate(270 6882)" fill="#e4e6ef"/>
    <circle id="Ellipse_59" data-name="Ellipse 59" cx="4.5" cy="4.5" r="4.5" transform="translate(270 6906)" fill="#e4e6ef"/>
    <circle id="Ellipse_67" data-name="Ellipse 67" cx="4.5" cy="4.5" r="4.5" transform="translate(270 6930)" fill="#e4e6ef"/>
    <circle id="Ellipse_75" data-name="Ellipse 75" cx="4.5" cy="4.5" r="4.5" transform="translate(270 6954)" fill="#e4e6ef"/>
    <circle id="Ellipse_83" data-name="Ellipse 83" cx="4.5" cy="4.5" r="4.5" transform="translate(270 6978)" fill="#e4e6ef"/>
    <circle id="Ellipse_44" data-name="Ellipse 44" cx="4.5" cy="4.5" r="4.5" transform="translate(292 6858)" fill="#e4e6ef"/>
    <circle id="Ellipse_52" data-name="Ellipse 52" cx="4.5" cy="4.5" r="4.5" transform="translate(292 6882)" fill="#e4e6ef"/>
    <circle id="Ellipse_60" data-name="Ellipse 60" cx="4.5" cy="4.5" r="4.5" transform="translate(292 6906)" fill="#e4e6ef"/>
    <circle id="Ellipse_68" data-name="Ellipse 68" cx="4.5" cy="4.5" r="4.5" transform="translate(292 6930)" fill="#e4e6ef"/>
    <circle id="Ellipse_76" data-name="Ellipse 76" cx="4.5" cy="4.5" r="4.5" transform="translate(292 6954)" fill="#e4e6ef"/>
    <circle id="Ellipse_84" data-name="Ellipse 84" cx="4.5" cy="4.5" r="4.5" transform="translate(292 6978)" fill="#e4e6ef"/>
    <circle id="Ellipse_45" data-name="Ellipse 45" cx="4.5" cy="4.5" r="4.5" transform="translate(314 6858)" fill="#e4e6ef"/>
    <circle id="Ellipse_53" data-name="Ellipse 53" cx="4.5" cy="4.5" r="4.5" transform="translate(314 6882)" fill="#e4e6ef"/>
    <circle id="Ellipse_61" data-name="Ellipse 61" cx="4.5" cy="4.5" r="4.5" transform="translate(314 6906)" fill="#e4e6ef"/>
    <circle id="Ellipse_69" data-name="Ellipse 69" cx="4.5" cy="4.5" r="4.5" transform="translate(314 6930)" fill="#e4e6ef"/>
    <circle id="Ellipse_77" data-name="Ellipse 77" cx="4.5" cy="4.5" r="4.5" transform="translate(314 6954)" fill="#e4e6ef"/>
    <circle id="Ellipse_85" data-name="Ellipse 85" cx="4.5" cy="4.5" r="4.5" transform="translate(314 6978)" fill="#e4e6ef"/>
    <circle id="Ellipse_46" data-name="Ellipse 46" cx="4.5" cy="4.5" r="4.5" transform="translate(336 6858)" fill="#e4e6ef"/>
    <circle id="Ellipse_54" data-name="Ellipse 54" cx="4.5" cy="4.5" r="4.5" transform="translate(336 6882)" fill="#e4e6ef"/>
    <circle id="Ellipse_62" data-name="Ellipse 62" cx="4.5" cy="4.5" r="4.5" transform="translate(336 6906)" fill="#e4e6ef"/>
    <circle id="Ellipse_70" data-name="Ellipse 70" cx="4.5" cy="4.5" r="4.5" transform="translate(336 6930)" fill="#e4e6ef"/>
    <circle id="Ellipse_78" data-name="Ellipse 78" cx="4.5" cy="4.5" r="4.5" transform="translate(336 6954)" fill="#e4e6ef"/>
    <circle id="Ellipse_86" data-name="Ellipse 86" cx="4.5" cy="4.5" r="4.5" transform="translate(336 6978)" fill="#e4e6ef"/>
    <circle id="Ellipse_47" data-name="Ellipse 47" cx="4.5" cy="4.5" r="4.5" transform="translate(358 6858)" fill="#e4e6ef"/>
    <circle id="Ellipse_55" data-name="Ellipse 55" cx="4.5" cy="4.5" r="4.5" transform="translate(358 6882)" fill="#e4e6ef"/>
    <circle id="Ellipse_63" data-name="Ellipse 63" cx="4.5" cy="4.5" r="4.5" transform="translate(358 6906)" fill="#e4e6ef"/>
    <circle id="Ellipse_71" data-name="Ellipse 71" cx="4.5" cy="4.5" r="4.5" transform="translate(358 6930)" fill="#e4e6ef"/>
    <circle id="Ellipse_79" data-name="Ellipse 79" cx="4.5" cy="4.5" r="4.5" transform="translate(358 6954)" fill="#e4e6ef"/>
    <circle id="Ellipse_87" data-name="Ellipse 87" cx="4.5" cy="4.5" r="4.5" transform="translate(358 6978)" fill="#e4e6ef"/>
  </g>
</svg>
